Coordinates
version=1
nRows=12
nColumns=42
inDegrees=yes

Units are S.I. units (second, meters, Newtons, ...)
If the header above contains a line with 'inDegrees', this indicates whether rotational values are in degrees (yes) or radians (no).

endheader
time	pelvis_tilt	pelvis_list	pelvis_rotation	pelvis_tx	pelvis_ty	pelvis_tz	hip_flexion_r	hip_adduction_r	hip_rotation_r	knee_angle_r	knee_adduction_r	knee_angle_r_beta	ankle_angle_r	subtalar_angle_r	mtp_angle_r	hip_flexion_l	hip_adduction_l	hip_rotation_l	knee_angle_l	knee_adduction_l	knee_angle_l_beta	ankle_angle_l	subtalar_angle_l	mtp_angle_l	lumbar_extension	lumbar_bending	lumbar_rotation	arm_flex_r	arm_add_r	arm_rot_r	elbow_flex_r	pro_sup_r	wrist_flex_r	wrist_dev_r	arm_flex_l	arm_add_l	arm_rot_l	elbow_flex_l	pro_sup_l	wrist_flex_l	wrist_dev_l
      3.20000000	     12.80756773	      6.88733894	     13.42806607	      0.41270464	      0.90141785	      0.43948022	     -9.22499962	     -2.40405329	    -34.38056106	     23.52659938	     -2.36736803	      0.41061662	     21.87643992	     17.46654824	     -7.50523150	     29.35928645	     -3.64820897	      0.50494849	     34.92630168	      5.97609595	      0.60957896	      8.38454256	     12.43885199	     -7.50523150	    -25.47321744	     -2.71237834	      4.69594082	    -14.63821109	     -9.94079893	    -14.78279407	     61.24910093	     90.00000001	      0.00000000	      0.00000000	    -11.57473045	    -14.82618032	     10.37309408	     95.33462938	     90.00000001	      0.00000000	      0.00000000
      3.21000000	     12.81310854	      6.76574125	     13.20092619	      0.41491659	      0.90098548	      0.43931676	     -9.30373323	     -2.30580677	    -34.28206562	     23.57991321	     -2.42414114	      0.41154712	     21.96364374	     17.52573324	     -7.50521177	     29.20792479	     -3.53325825	      0.56991997	     34.84970584	      5.94826704	      0.60824211	      8.34738354	     12.48811346	     -7.50521177	    -25.31797806	     -2.63277120	      4.76821908	    -14.76349145	     -9.80186220	    -14.67491701	     61.13585591	     90.00000001	      0.00000000	      0.00000000	    -11.83830878	    -14.60589817	     10.46888385	     95.26488818	     90.00000001	      0.00000000	      0.00000000
      3.22000000	     12.82046127	      6.66332628	     12.97831556	      0.41717990	      0.90060432	      0.43914796	     -9.42275039	     -2.21215896	    -34.10248207	     23.57675835	     -2.45108218	      0.41149206	     22.24687381	     17.70307531	     -7.50516593	     28.95548147	     -3.43635281	      0.68252432	     34.64243210	      5.99532092	      0.60462450	      8.28776567	     12.61820805	     -7.50516593	    -25.16253379	     -2.58606970	      4.82878426	    -14.81757359	     -9.76059673	    -14.42857113	     60.84950366	     90.00000001	      0.00000000	      0.00000000	    -12.05100176	    -14.33001490	     10.49937859	     95.14858846	     90.00000001	      0.00000000	      0.00000000
      3.23000000	     12.77718251	      6.54858115	     12.79329080	      0.41945157	      0.90008763	      0.43896136	     -9.47117598	     -2.15597548	    -34.04921177	     23.62176449	     -2.46256350	      0.41227757	     22.24964357	     17.70336967	     -7.50515924	     28.83594393	     -3.35793615	      0.70795588	     34.67049304	      5.99220940	      0.60511426	      8.27178269	     12.62609666	     -7.50515924	    -24.95212024	     -2.52169327	      4.81741332	    -14.84009072	     -9.71636277	    -14.39648636	     60.82912636	     90.00000001	      0.00000000	      0.00000000	    -12.07943299	    -14.30088646	     10.50586032	     95.13623112	     90.00000001	      0.00000000	      0.00000000
      3.24000000	     12.78088227	      6.39482430	     12.59645937	      0.42180872	      0.89966021	      0.43881512	     -9.55518436	     -2.01266746	    -33.92076549	     23.68489403	     -2.50142218	      0.41337938	     22.36419631	     17.75780793	     -7.50514293	     28.59110742	     -3.28736084	      0.84469379	     34.57077286	      5.89706945	      0.60337381	      8.23193056	     12.67819968	     -7.50514293	    -24.80924475	     -2.42129266	      4.90791067	    -14.96127348	     -9.52048117	    -14.23907262	     60.67505458	     90.00000001	      0.00000000	      0.00000000	    -12.36466388	    -14.07050995	     10.58137697	     95.05194876	     90.00000001	      0.00000000	      0.00000000
      3.25000000	     12.79477290	      6.29212550	     12.41641323	      0.42419829	      0.89933600	      0.43865727	     -9.74217343	     -1.89224447	    -33.62135272	     23.59692503	     -2.44630097	      0.41184404	     22.95903466	     18.08990125	     -7.50502707	     28.20723025	     -3.26886643	      1.08196844	     34.29278603	      6.04791559	      0.59852203	      8.20166580	     12.85292539	     -7.50502707	    -24.67285887	     -2.38323898	      4.81344447	    -14.75298153	     -9.73302975	    -13.53363239	     59.96070328	     90.00000001	      0.00000000	      0.00000000	    -12.46673464	    -13.72261988	     10.21337720	     94.82216712	     90.00000001	      0.00000000	      0.00000000
      3.26000000	     12.72475888	      6.17823851	     12.28104385	      0.42660489	      0.89875655	      0.43844710	     -9.79395445	     -1.82809089	    -33.60775585	     23.62966231	     -2.45503247	      0.41241541	     22.96160737	     18.09168396	     -7.50502393	     28.04396090	     -3.22136133	      1.10453313	     34.31371914	      6.02735004	      0.59888738	      8.19115797	     12.85675763	     -7.50502393	    -24.44157119	     -2.34786047	      4.80156950	    -14.74599643	     -9.71726417	    -13.51706960	     59.95954848	     90.00000001	      0.00000000	      0.00000000	    -12.47748089	    -13.70185679	     10.21603298	     94.82497435	     90.00000001	      0.00000000	      0.00000000
      3.27000000	     12.69143008	      5.97264793	     12.07221420	      0.42897051	      0.89831707	      0.43834406	     -9.80764599	     -1.63221173	    -33.44520758	     23.68425658	     -2.53700873	      0.41336826	     23.10438461	     18.17758930	     -7.50499277	     27.71713816	     -3.28206326	      1.19567146	     34.07716432	      5.94061637	      0.59475872	      8.15759993	     12.90463306	     -7.50499277	    -24.27271330	     -2.21943182	      4.80659920	    -14.66393036	     -9.72118765	    -13.37444656	     59.89654162	     90.00000001	      0.00000000	      0.00000000	    -12.62739742	    -13.48135121	     10.18267822	     94.78579407	     90.00000001	      0.00000000	      0.00000000
      3.28000000	     12.60102056	      5.87272918	     11.98039726	      0.43145314	      0.89771527	      0.43809395	     -9.86243822	     -1.57112454	    -33.42301045	     23.70940782	     -2.53320764	      0.41380723	     23.12137444	     18.18410081	     -7.50498893	     27.52813238	     -3.25084314	      1.21695173	     34.09621682	      5.93142535	      0.59509125	      8.14654514	     12.91167553	     -7.50498893	    -24.03390480	     -2.19097645	      4.79047061	    -14.64161722	     -9.71604288	    -13.35942367	     59.90000901	     90.00000001	      0.00000000	      0.00000000	    -12.60701597	    -13.47654950	     10.16377565	     94.79025144	     90.00000001	      0.00000000	      0.00000000
      3.29000000	     12.51572020	      5.72109916	     11.86031567	      0.43388019	      0.89715029	      0.43786477	     -9.89712186	     -1.46596375	    -33.37482570	     23.73567061	     -2.52287983	      0.41426560	     23.18414762	     18.21037488	     -7.50498152	     27.29901411	     -3.27261338	      1.24909611	     34.03310606	      5.88078751	      0.59398976	      8.13112638	     12.92706988	     -7.50498152	    -23.81916784	     -2.12096939	      4.75906296	    -14.58532776	     -9.69683472	    -13.32669921	     59.90786917	     90.00000001	      0.00000000	      0.00000000	    -12.56702884	    -13.45876760	     10.12065251	     94.79155967	     90.00000001	      0.00000000	      0.00000000
      3.30000000	     12.52200521	      5.57474651	     11.71196501	      0.43632784	      0.89678383	      0.43770695	    -10.07192711	     -1.27554266	    -33.10913484	     23.62633229	     -2.52448105	      0.41235729	     23.70011895	     18.48223985	     -7.50490835	     26.82426445	     -3.36792211	      1.39437240	     33.72210307	      5.95089139	      0.58856173	      8.07760992	     13.07696956	     -7.50490835	    -23.71676010	     -2.02530727	      4.70387022	    -14.43021726	     -9.72358734	    -13.13987008	     59.84044075	     90.00000001	      0.00000000	      0.00000000	    -12.50797193	    -13.26818853	      9.70581250	     94.69666461	     90.00000001	      0.00000000	      0.00000000
      3.31000000	     12.41029307	      5.41404952	     11.64481938	      0.43879785	      0.89618472	      0.43742395	    -10.08436573	     -1.15523488	    -33.10621039	     23.66146656	     -2.52453217	      0.41297050	     23.75137148	     18.52072610	     -7.50489478	     26.60295929	     -3.41905550	      1.36610320	     33.65819614	      5.86887232	      0.58744634	      8.07594899	     13.07551381	     -7.50489478	    -23.48342031	     -1.94743616	      4.62189861	    -14.37003630	     -9.67244843	    -13.10133813	     59.85954770	     90.00000001	      0.00000000	      0.00000000	    -12.39599784	    -13.28534404	      9.63319830	     94.71731256	     90.00000001	      0.00000000	      0.00000000
